<svg width="29" height="29" viewBox="0 0 29 29" fill="none" xmlns="http://www.w3.org/2000/svg">
<g filter="url(#filter0_d_4_6)">
<path fill-rule="evenodd" clip-rule="evenodd" d="M23.6464 22.9535L23.2929 22.6L18.6548 17.9619L18.3053 18.2415C16.8511 19.4047 15.0074 20.1 13 20.1C8.30558 20.1 4.5 16.2944 4.5 11.6C4.5 6.90559 8.30558 3.10001 13 3.10001C17.6944 3.10001 21.5 6.90559 21.5 11.6C21.5 13.6075 20.8047 15.4512 19.6414 16.9054L19.3619 17.2548L24.3478 22.2408L24.3507 22.2436C24.4434 22.3349 24.5 22.4604 24.5 22.6C24.5 22.8761 24.2761 23.1 24 23.1C23.8618 23.1 23.7375 23.0446 23.6464 22.9535ZM13 4.10001C8.85786 4.10001 5.5 7.45787 5.5 11.6C5.5 15.7421 8.85786 19.1 13 19.1C17.1421 19.1 20.5 15.7421 20.5 11.6C20.5 7.45787 17.1421 4.10001 13 4.10001Z" fill="black"/>
</g>
<defs>
<filter id="filter0_d_4_6" x="-2" y="0.600006" width="32" height="32" filterUnits="userSpaceOnUse" color-interpolation-filters="sRGB">
<feFlood flood-opacity="0" result="BackgroundImageFix"/>
<feColorMatrix in="SourceAlpha" type="matrix" values="0 0 0 0 0 0 0 0 0 0 0 0 0 0 0 0 0 0 127 0" result="hardAlpha"/>
<feOffset dy="4"/>
<feGaussianBlur stdDeviation="2"/>
<feComposite in2="hardAlpha" operator="out"/>
<feColorMatrix type="matrix" values="0 0 0 0 0 0 0 0 0 0 0 0 0 0 0 0 0 0 0.25 0"/>
<feBlend mode="normal" in2="BackgroundImageFix" result="effect1_dropShadow_4_6"/>
<feBlend mode="normal" in="SourceGraphic" in2="effect1_dropShadow_4_6" result="shape"/>
</filter>
</defs>
</svg>
